<svg width="121" height="23" viewBox="0 0 121 23" fill="none" xmlns="http://www.w3.org/2000/svg">
<mask id="mask0" mask-type="alpha" maskUnits="userSpaceOnUse" x="0" y="0" width="121" height="23">
<path d="M0 21.9326C0 22.1035 0.138494 22.242 0.309336 22.242H8.00671C15.5349 22.242 20.8302 17.6804 20.8302 11.2686C20.8302 4.85688 15.5349 0.327182 8.00671 0.327182H0.309336C0.138494 0.327182 0 0.465677 0 0.636518V21.9326ZM5.7641 17.2976C5.59326 17.2976 5.45477 17.1591 5.45477 16.9882V5.58091C5.45477 5.41007 5.59326 5.27157 5.7641 5.27157H8.83609C12.5683 5.27157 15.2478 7.75971 15.2478 11.2686C15.2478 14.7775 12.5683 17.2976 8.83609 17.2976H5.7641Z" fill="black"/>
<path d="M40.4504 5.20777C40.6213 5.20777 40.7597 5.06928 40.7597 4.89844V0.636519C40.7597 0.465677 40.6213 0.327182 40.4504 0.327182H23.8116C23.6408 0.327182 23.5023 0.465677 23.5023 0.636518V21.9326C23.5023 22.1035 23.6408 22.242 23.8116 22.242H40.4504C40.6213 22.242 40.7597 22.1035 40.7597 21.9326V17.6707C40.7597 17.4999 40.6213 17.3614 40.4504 17.3614H29.2664C29.0955 17.3614 28.957 17.2229 28.957 17.052V13.8109C28.957 13.6401 29.0955 13.5016 29.2664 13.5016H39.3658C39.5367 13.5016 39.6752 13.3631 39.6752 13.1922V8.93033C39.6752 8.75949 39.5367 8.62099 39.3658 8.62099H29.2664C29.0955 8.62099 28.957 8.4825 28.957 8.31166V5.51711C28.957 5.34627 29.0955 5.20777 29.2664 5.20777H40.4504Z" fill="black"/>
<path d="M59.2319 0.327182C59.1049 0.327182 58.9909 0.404718 58.9442 0.522749L53.6949 13.795C53.5918 14.0558 53.2228 14.0558 53.1196 13.795L47.8704 0.522749C47.8237 0.404719 47.7096 0.327182 47.5827 0.327182H42.1235C41.9052 0.327182 41.7555 0.547347 41.8359 0.750391L50.2676 22.0465C50.3143 22.1645 50.4283 22.242 50.5552 22.242H56.2594C56.3863 22.242 56.5003 22.1645 56.547 22.0465L64.9786 0.75039C65.059 0.547346 64.9094 0.327182 64.691 0.327182H59.2319Z" fill="black"/>
<path d="M61.9092 21.8176C61.8278 22.0208 61.9774 22.242 62.1963 22.242H67.176C67.3025 22.242 67.4162 22.165 67.4632 22.0477L75.9934 0.751539C76.0748 0.548327 75.9252 0.327182 75.7063 0.327182H70.7265C70.6001 0.327182 70.4864 0.404127 70.4394 0.521497L61.9092 21.8176Z" fill="black"/>
<path d="M87.4679 13.5349C87.4679 13.7058 87.6064 13.8443 87.7773 13.8443H91.8478C92.0186 13.8443 92.1571 13.9828 92.1571 14.1536V16.4234C92.1571 16.5261 92.1064 16.6225 92.02 16.6779C90.9633 17.3552 89.7113 17.736 88.4887 17.736C85.0755 17.736 82.1726 14.8012 82.1726 11.3242C82.1726 7.87911 85.0755 4.94438 88.4887 4.94438C90.2626 4.94438 92.0648 5.73786 93.2544 7.05771C93.3727 7.18901 93.5757 7.20663 93.7078 7.08926L97.2137 3.97608C97.3443 3.86011 97.3533 3.65877 97.2296 3.53546C95.0002 1.31321 91.7594 0 88.4887 0C82.0131 0 76.5903 5.16768 76.5903 11.3242C76.5903 17.4808 82.0131 22.6804 88.4887 22.6804C91.828 22.6804 95.1363 21.3114 97.3687 18.973C97.4228 18.9163 97.4524 18.8408 97.4524 18.7624V10.0386C97.4524 9.86776 97.3139 9.72927 97.143 9.72927H87.7773C87.6064 9.72927 87.4679 9.86776 87.4679 10.0386V13.5349Z" fill="black"/>
<path d="M100.553 21.9882C100.553 22.1591 100.691 22.2976 100.862 22.2976H105.698C105.869 22.2976 106.007 22.1591 106.007 21.9882V10.2882C106.007 9.98952 106.389 9.86425 106.566 10.1047L115.453 22.1717C115.511 22.2508 115.603 22.2976 115.702 22.2976H120.691C120.862 22.2976 121 22.1591 121 21.9882V0.692127C121 0.521286 120.862 0.382792 120.691 0.382792H115.855C115.684 0.382792 115.545 0.521286 115.545 0.692128V12.3922C115.545 12.6908 115.164 12.8161 114.987 12.5756L106.1 0.508693C106.042 0.429528 105.949 0.382792 105.851 0.382792H100.862C100.691 0.382792 100.553 0.521286 100.553 0.692128V21.9882Z" fill="black"/>
</mask>
<g mask="url(#mask0)">
<rect x="-4.20654" y="-6.94409" width="129.414" height="36.5686" fill="black"/>
<path d="M73.3569 8.08337L68.6899 -0.000144821L78.0239 -0.000144005L73.3569 8.08337Z" fill="#E60881"/>
<path opacity="0.8" d="M73.5874 8.34364L64.2533 8.34364L68.9204 0.260122L73.5874 8.34364Z" fill="#E60881"/>
<path opacity="0.6" d="M76.582 8.34095L71.915 16.4245L67.248 8.34095L76.582 8.34095Z" fill="#E60881"/>
<path opacity="0.4" d="M72.06 16.6288L62.726 16.6288L67.393 8.54528L72.06 16.6288Z" fill="#E60881"/>
<path opacity="0.2" d="M73.1426 16.6315L68.4756 24.715L63.8086 16.6315L73.1426 16.6315Z" fill="#E60881"/>
<rect x="76.4609" y="-4.49927" width="46.9819" height="33.1009" fill="#E60881"/>
</g>
<path d="M0 21.9326C0 22.1035 0.138494 22.242 0.309336 22.242H8.00671C15.5349 22.242 20.8302 17.6804 20.8302 11.2686C20.8302 4.85688 15.5349 0.327182 8.00671 0.327182H0.309336C0.138494 0.327182 0 0.465677 0 0.636518V21.9326ZM5.7641 17.2976C5.59326 17.2976 5.45477 17.1591 5.45477 16.9882V5.58091C5.45477 5.41007 5.59326 5.27157 5.7641 5.27157H8.83609C12.5683 5.27157 15.2478 7.75971 15.2478 11.2686C15.2478 14.7775 12.5683 17.2976 8.83609 17.2976H5.7641Z" fill="black"/>
<path d="M40.4504 5.20777C40.6213 5.20777 40.7597 5.06928 40.7597 4.89844V0.636519C40.7597 0.465677 40.6213 0.327182 40.4504 0.327182H23.8116C23.6408 0.327182 23.5023 0.465677 23.5023 0.636518V21.9326C23.5023 22.1035 23.6408 22.242 23.8116 22.242H40.4504C40.6213 22.242 40.7597 22.1035 40.7597 21.9326V17.6707C40.7597 17.4999 40.6213 17.3614 40.4504 17.3614H29.2664C29.0955 17.3614 28.957 17.2229 28.957 17.052V13.8109C28.957 13.6401 29.0955 13.5016 29.2664 13.5016H39.3658C39.5367 13.5016 39.6752 13.3631 39.6752 13.1922V8.93033C39.6752 8.75949 39.5367 8.62099 39.3658 8.62099H29.2664C29.0955 8.62099 28.957 8.4825 28.957 8.31166V5.51711C28.957 5.34627 29.0955 5.20777 29.2664 5.20777H40.4504Z" fill="black"/>
<path d="M59.2319 0.327182C59.1049 0.327182 58.9909 0.404718 58.9442 0.522749L53.6949 13.795C53.5918 14.0558 53.2228 14.0558 53.1196 13.795L47.8704 0.522749C47.8237 0.404719 47.7096 0.327182 47.5827 0.327182H42.1235C41.9052 0.327182 41.7555 0.547347 41.8359 0.750391L50.2676 22.0465C50.3143 22.1645 50.4283 22.242 50.5552 22.242H56.2594C56.3863 22.242 56.5003 22.1645 56.547 22.0465L64.9786 0.75039C65.059 0.547346 64.9094 0.327182 64.691 0.327182H59.2319Z" fill="black"/>
</svg>
